<?xml version="1.0" encoding="utf-8"?>
<!-- Generator: Adobe Illustrator 24.1.2, SVG Export Plug-In . SVG Version: 6.00 Build 0)  -->
<svg version="1.1" id="Layer_1" xmlns="http://www.w3.org/2000/svg" xmlns:xlink="http://www.w3.org/1999/xlink" x="0px" y="0px"
	 viewBox="0 0 965.3 172.8" style="enable-background:new 0 0 965.3 172.8;" xml:space="preserve">
<style type="text/css">
	.st0{fill:#00B386;}
	.st1{fill:#FFFFFF;}
	.st2{enable-background:new    ;}
</style>
<g>
	<path class="st0" d="M27.7,159.3V23.6h38.8V43h19.4v19.4h19.4V43h19.4V23.6h38.8v135.8h-38.8V81.7h-19.4v38.8H85.9V81.7H66.5v77.6
		H27.7z"/>
	<path class="st0" d="M221.7,159.3v-19.4h-19.4v-19.4h-19.4V62.3h19.4V43h19.4V23.6h77.6V43h19.4v19.4h-38.8V43h-38.8v19.4h-19.4
		v58.2h19.4v19.4h38.8v-19.4h38.8v19.4h-19.4v19.4H221.7z"/>
	<path class="st0" d="M338.1,159.3V23.6h116.4V43h19.4v58.2h-19.4v19.4h-77.6v38.8H338.1z M376.9,101.1h58.2V43h-58.2V101.1z"/>
	<path class="st1" d="M16.7,148.3V12.5h38.8v19.4h19.4v19.4h19.4V31.9h19.4V12.5h38.8v135.8h-38.8V70.7H94.2v38.8H74.8V70.7H55.5
		v77.6H16.7z"/>
	<path class="st1" d="M210.6,148.3v-19.4h-19.4v-19.4h-19.4V51.3h19.4V31.9h19.4V12.5h77.6v19.4h19.4v19.4h-38.8V31.9H230v19.4
		h-19.4v58.2H230v19.4h38.8v-19.4h38.8v19.4h-19.4v19.4H210.6z"/>
	<path class="st1" d="M327,148.3V12.5h116.4v19.4h19.4v58.2h-19.4v19.4h-77.6v38.8H327z M365.8,90.1H424V31.9h-58.2V90.1z"/>
	<g class="st2">
		<path class="st1" d="M494.2,159.3v-5.5h-5.5v-5.5h11.1v5.5h16.6v-11.1h-22.2v-5.5h-5.5v-11.1h5.5v-5.5h27.7v5.5h5.5v5.5h-11.1
			v-5.5h-16.6v11.1h22.2v5.5h5.5v11.1h-5.5v5.5H494.2z"/>
		<path class="st1" d="M569.9,159.3v-5.5h-5.5v-5.5h-5.5v-16.6h5.5v-5.5h5.5v-5.5h22.2v5.5h5.5v5.5h-11.1v-5.5h-11.1v5.5h-5.5v16.6
			h5.5v5.5h11.1v-5.5h11.1v5.5h-5.5v5.5H569.9z"/>
		<path class="st1" d="M634.6,159.3v-5.5H629v-27.7h5.5v-5.5h27.7v5.5h5.5v27.7h-5.5v5.5H634.6z M640.1,153.8h16.6v-27.7h-16.6
			V153.8z"/>
		<path class="st1" d="M704.8,159.3v-5.5h-5.5v-27.7h5.5v-5.5h27.7v5.5h5.5v27.7h-5.5v5.5H704.8z M710.3,153.8H727v-27.7h-16.6
			V153.8z"/>
		<path class="st1" d="M786.1,159.3v-33.3H775v-5.5h33.3v5.5h-11.1v33.3H786.1z"/>
		<path class="st1" d="M839.6,159.3v-38.8h38.8v5.5h-27.7v11.1h22.2v5.5h-22.2v11.1h27.7v5.5H839.6z"/>
		<path class="st1" d="M909.9,159.3v-38.8h33.3v5.5h5.5v16.6h-11.1v5.5h5.5v5.5h5.5v5.5H932v-5.5h-5.5v-5.5h-5.5v11.1H909.9z
			 M920.9,142.7H932v-5.5h5.5v-11.1h-16.6V142.7z"/>
	</g>
</g>
</svg>
