<?xml version="1.0" encoding="utf-8"?>
<!-- Generator: Adobe Illustrator 24.1.2, SVG Export Plug-In . SVG Version: 6.00 Build 0)  -->
<svg version="1.1" id="Layer_1" xmlns="http://www.w3.org/2000/svg" xmlns:xlink="http://www.w3.org/1999/xlink" x="0px" y="0px"
	 viewBox="0 0 180 180" style="enable-background:new 0 0 180 180;" xml:space="preserve">
<style type="text/css">
	.st0{clip-path:url(#SVGID_2_);}
	.st1{fill:none;stroke:#FFFFFF;stroke-width:12;stroke-linecap:round;}
</style>
<g>
	<defs>
		<rect id="SVGID_1_" width="180" height="180"/>
	</defs>
	<clipPath id="SVGID_2_">
		<use xlink:href="#SVGID_1_"  style="overflow:visible;"/>
	</clipPath>
	<g class="st0">
		<path class="st1" d="M18,84.9L85.9,17c9.4-9.4,24.6-9.4,33.9,0l0,0c9.4,9.4,9.4,24.6,0,33.9l-51.3,51.3"/>
		<path class="st1" d="M69.3,101.5l50.6-50.6c9.4-9.4,24.6-9.4,33.9,0l0.4,0.4c9.4,9.4,9.4,24.6,0,33.9l-61.4,61.4
			c-3.1,3.1-3.1,8.2,0,11.3l12.6,12.6"/>
		<path class="st1" d="M102.9,33.9L52.6,84.1c-9.4,9.4-9.4,24.6,0,33.9l0,0c9.4,9.4,24.6,9.4,33.9,0l50.2-50.2"/>
	</g>
</g>
</svg>
