<?xml version="1.0" encoding="utf-8"?>
<!-- Generator: Adobe Illustrator 24.1.2, SVG Export Plug-In . SVG Version: 6.00 Build 0)  -->
<svg version="1.1" id="Layer_1" xmlns="http://www.w3.org/2000/svg" xmlns:xlink="http://www.w3.org/1999/xlink" x="0px" y="0px"
	 viewBox="0 0 1024 1024" style="enable-background:new 0 0 1024 1024;" xml:space="preserve">
<style type="text/css">
	.st0{fill:#010202;}
</style>
<g>
	<g id="_x23_010202ff">
		<path class="st0" d="M823.6,26.8c4.4-0.7,8.9-1.3,13.4-1.7c-4.8,8.3-3.7,20.1,3.3,26.9c-3.4-8.5-4.4-19.1,1.8-26.6
			c4.1-0.4,8.3,0.8,10.9,4.1c6.9,8.4,6.9,21,2.4,30.5c-5.2,9.3-8.7,19.4-14.1,28.7c-1.3,2.2-2.7,4.7-5.1,6
			c-7.8,4.2-15.6,8.6-23.7,12.4c-4.9,2.3-9.5,5.3-14.8,6.6c9.5-9.3,20.2-17.3,30.1-26.1c2.4-2.7,2.5-6.5,3.2-9.9
			c0.7-5.5,2.6-10.7,3.6-16.1c-19.1,3.1-38.1,7.2-57.2,10.5c-4.7,0.1-5.4,5.8-9.3,7.3c-3.7,1.5-7.7,2.1-11.6,2.3
			c-3.3,0.5-5.9-3.6-9.2-1.7c-8.9,4.4-15.9,11.7-22.9,18.5c-6.7,7-12.2,15-17.6,22.9c-9.6,15-15.9,32.1-19,49.6
			c-0.8,7.4-0.9,14.9-0.5,22.3c0.8,11.6,5.3,22.5,7.6,33.8c1.8,8.2,3.6,16.3,6,24.3c3.2,10.5,5.3,21.3,8.4,31.8
			c3,9.9,4.8,20,7.6,29.9c1.5,5.9,3.4,11.7,4.8,17.7c2.6,12.4,6.4,24.4,9.2,36.8c2.6,11.9,6,23.5,9,35.3c9.1-1.2,18.3-1.9,27.4-0.2
			c19.2,2.1,36.8,11.7,51.1,24.4c8.7,8.3,17,17.3,22.5,28.2c4.4,7.3,8.1,15,10.7,23.2c6.8,16,8.1,33.7,7.9,50.9
			c0.5,24.7-6,49.6-18.7,70.7c-9.2,17.9-24.1,32.3-40.9,43.1c-7.3,3.9-14.8,7.5-22.7,9.8c-8.4,2.4-16.7,5-24.8,8.1
			c-18.8,6-37.5,12.1-56.1,18.6c-10.8,3.1-21.4,7.1-32.1,10.5c-6.9,2-13.8,4.2-20.4,7c-8.9,2.6-17.8,5.2-26.4,8.7
			c-7.7,2.6-15.7,4.6-23.2,7.6c-7.1,2.8-14.5,4.6-21.7,7c-5.1,1.6-10,3.6-15.1,5c-8.2,2.1-15.9,6-24.2,7.8c0.3-0.6,1-1.9,1.4-2.5
			c9-4.5,17.6-9.6,26.4-14.4c13.1-7.7,26.6-14.5,39.7-22c14.9-8,29.4-16.6,44.4-24.2c17.7-10.1,35.7-19.6,53.4-29.7
			c-6.5-4.7-12.7-9.8-18.2-15.7c-5.5-6.5-11.4-12.8-15.2-20.6c-4.1-7-8.1-14.2-10.5-22c-7.7,0.8-14.7,4.5-21.9,6.8
			c-14.7,4.5-29.3,9.5-44.1,13.9c-24.5,9.1-49.7,16-74.4,24.8c-1.7,1-1.4,3.2-1.6,4.8c-2,13.1-4.9,26.1-9.6,38.5
			c-6.2,19.7-16.2,37.9-28.1,54.6c-11.5,15.9-25.9,29.7-41.9,41.1c-12.4,8.9-26.8,14.6-41.1,20c-15.8,3.7-31.3,8.8-46.9,13.3
			c-22.4,8.2-45.6,13.7-68.1,21.4c-8.4,2.8-17.1,4.9-25.4,8c-3.5,1-7,2.6-10.7,2.6c1.3-2.7,4.4-3.4,6.9-4.7
			c4.6-2.2,9.5-3.9,14.1-6.2c6.9-3.1,14.4-5.3,20.5-10c-12,2.8-23.3,8-34.8,12.5c-21.6,7.2-42.7,15.9-64.2,23.6
			c-5.8,2.6-11.8,4.5-18,6.1c15.1-9,30.7-17.2,45.5-26.8c27.3-15.2,54.2-31,81-47c-4.7-3.6-10.1-6.1-15.3-8.9
			c-4.9-2.9-8.9-7-13.5-10.3c-6.6-4.5-12-10.4-17.6-16.1c-9-8.8-15.8-19.6-22.7-30.1c-2.7-6-6.6-11.3-9.5-17.2
			c-3.4-9.6-7.9-18.8-10.6-28.6c-4.2-15.1-7.5-30.4-8.6-46.1c-0.8-18.5-0.6-37.2,2.5-55.5c2.5-11.6,4.6-23.4,8.6-34.7
			c7.9-21.9,18.5-43.1,33.4-61.1c5.5-7.5,12.6-13.7,18.8-20.5c11.2-9.8,23.1-18.9,36.6-25.2c9.6-5.3,20.2-8.5,30.8-11.5
			c15.3-4.1,31.3-3.8,47-2.9c10.6,1.2,21.1,3.2,31,7.2c9.4,2.6,17.8,7.4,26.3,12.1c25,14.8,45.3,36.8,59.2,62.1
			c3.5,7.1,8.2,13.6,10.5,21.2c9,0.9,17.9,2.4,26.9,2.6c15.7,2.6,31.6,2.9,47.3,5c14.9,0.9,29.7,3.3,44.7,4.2
			c9.1,2.1,18.5,1.5,27.6,3.3c1.2-3.5,0.9-7.3,1.1-10.9c0.7-8.1,2.1-16.2,4.3-24c1.7-10,6.2-19.2,10.4-28.4
			c8.6-15.9,19.2-31.4,34-42.2c2.2-1.8,4.4-3.7,6.7-5.2c-4-10.5-5.1-21.8-8-32.6c-6.8-27.8-13.2-55.7-19.6-83.6
			c-4.3-15.7-6.7-31.8-11.3-47.4c-4.1-21.1-9.6-41.9-14.4-62.9c-2.6-8.3-3.6-17.1-7-25.2c-0.3-1.6-1.8-3.4-0.9-4.9
			c7.9-1.9,15.8-4.1,22.5-8.9c5.7-3.5,9.9-8.7,15-13c-15.2,9.9-34.5,13.7-52.3,9.7c-9.2-2.9-18.1-7.4-25.1-14.2
			c-6.9-5.1-11.8-12.5-19.3-16.8c-5.7-1.8-11.9,1.7-17.6-0.4c-2.8-0.7-5.2-2.5-7.9-3.6c-15.8,1.4-31.5,4.2-47.2,6.5
			c-5.2,0.1-10.4,1.8-15.6,1.1c-9.1-2-16.3-11.1-15.5-20.5c-0.7-6.3,4.1-12.9,10.6-13.5c14.8-1.6,29.6-4,44.4-6.2
			c6.9-1.1,13.8-2.5,20.8-2.5c-2.3,8.7-1.3,18.8,5.3,25.4c-3.1-6.1-3-13.4-1.9-20c1-5.3,6.4-8.5,11.5-8.5
			c18.2-1.5,33.8,10.8,51.6,12.3c12.3,0.6,25.1,0.3,36.6-4.6c7.3-3.5,14.8-6.6,22-10.3c-4.6,9.7-12.4,17.2-19.4,25.1
			c15.5-9.8,27.6-23.9,40.2-37c10.3-9.6,23.2-16.3,37-19.4c1.6-0.3,2.9-1.4,4-2.6c3.5-4.6,10.1-3.9,15.2-5.2
			c-2,5.2-4.4,10.6-3.6,16.4c0.4,5.2,2.5,10,4.8,14.6c-1.1-8.2-2.8-17.6,2.5-24.8c2-3.2,6.1-2.9,9.4-3.8
			C786.5,33.8,805.1,30.5,823.6,26.8 M775.2,43.1c-2.6,0.6-5.5,0.3-7.8,1.9c-0.5,1.8-0.7,3.6-0.9,5.5c6.9-0.8,13.6-2.7,20.5-3.6
			c12.3-2.8,25-4.1,37.3-6.8c0.1-2,0.2-3.9,0.3-5.9C808,36.2,791.8,40.7,775.2,43.1 M693.7,80.2c-11,11.4-21.3,23.9-35.1,32.1
			c-7.2,4.1-15.3,6.2-23.4,7.5c-9.8,0.9-19.6-1.6-28.3-5.9c-6.1-3.5-11.9-7.7-17.7-11.7c6.5,7.8,14.1,14.7,22.7,20
			c6.7,3.9,14.5,5.6,22.1,6.4c16.6,0.5,31.9-8.4,43.2-19.9c14.8-14.5,26.5-31.9,42.4-45.3c4.4-3.8,9.5-6.5,14.3-9.8
			C717.9,57.7,704.6,68.4,693.7,80.2 M497.2,93.5c-1.4,0.4-2.7,0.9-4,1.4c0,1.3-0.1,2.6-0.2,3.9c16.1-1,32-4.2,48-6
			c0-1.8,0.1-3.6,0.1-5.4C526.5,89.3,511.8,91.2,497.2,93.5 M651.9,171.9c12.2,54.3,26.2,108.3,39.1,162.5c2.5,10.3,5.5,20.6,7.8,31
			c-0.1-1.9-0.2-3.7-0.5-5.5c-3.6-15.1-5.6-30.5-9.2-45.5c-2.4-9.5-3.6-19.2-5.9-28.7c-3.4-16.2-6.5-32.4-9.8-48.6
			c-3.6-13.2-5.4-26.9-8.9-40.1C662.5,187.7,659.2,178.3,651.9,171.9 M728.7,419.4c-7.4,2-13.7,6.6-20.2,10.4
			c-19.4,13.6-33,34-41.6,55.9c-5.8,12.6-7.6,26.6-9.8,40.1c0.1,5.7-2.4,11.6-0.2,17.1c2-6.1,2.1-12.7,3.6-19
			c3.9-15.3,9.5-30.3,17.4-44.1c5.4-10.5,13.5-19.3,21.1-28.3c9.4-8.5,19.9-15.9,31.3-21.4c15.9-6.5,33.9-9.1,50.8-5
			c12.3,2,23.4,8.1,33.6,14.9c-7.1-8.2-16.1-14.5-26-18.7C770.1,412.6,747.7,411.2,728.7,419.4 M308.7,439.9
			c-14.5,7.2-27.8,16.6-39.5,27.7c-20.3,20.5-35,46.2-44.1,73.4c-5,13.9-7.7,28.6-10.2,43.2c-0.6,10-2.5,19.9-1.5,29.9
			c2.7-1.4,2-4.7,2.5-7.2c2.4-15.1,5.2-30.2,10.7-44.5c4.5-15.9,12.7-30.3,20.8-44.6c4.3-6.4,8.2-13.3,13.7-18.9
			c15.2-18.8,33.9-35.5,56.4-44.8c26.7-12.8,58.3-13.7,86.4-4.8c12,3.8,22.8,10.2,33.4,16.9c-1.9-2-3.6-4.3-5.7-6.1
			c-11-9.2-23-17.4-36.6-22.3c-13.6-5.4-28.3-8.4-42.9-8C337.1,429.7,322.6,434.6,308.7,439.9 M759.5,437.1
			c-17.2,1.1-32.9,10.4-44.9,22.3c-8.9,9.9-17.4,20.7-21.9,33.3c-1.8,4.4-3.6,8.9-5,13.5c-3.4,12.7-6.6,25.7-4.6,39
			c2.9-17.8,6.8-36,16.3-51.6c3.6-6.6,7.9-12.8,12.7-18.6c8.8-11.8,21.6-19.8,34.8-25.9c13.1-4.9,27.7-6.1,41.3-2.6
			c9.3,1.9,17.7,6.6,26.2,10.8c-3.3-2.2-5.9-5.1-8.9-7.5C792.3,440.5,775.8,435,759.5,437.1 M337.3,467.4
			c-15.6,6.2-30,15.6-41.8,27.6c-11.7,11.7-20.3,25.9-27.9,40.4c-5.8,12.8-10.5,26.3-13.1,40.1c-2,8.7-3.9,17.6-4.1,26.6
			c-0.5,6.6,0.4,13.2,0.2,19.9c0.2,0,0.7,0,1,0c-0.3-10.5,2.6-20.7,4.4-31c4.9-20.6,13-40.6,24.7-58.3c4.3-8,10.7-14.6,16.5-21.5
			c16.2-17.8,37.8-30.7,61.2-36.3c13.9-2.3,28.3-2.3,42.1,0.4c10.3,3.1,21,6.2,30,12.4c1.5,1,3.1,1.6,4.8,2.2
			c-2.4-3.2-5.4-5.9-8.8-8.1c-7.1-5.7-15.2-10.3-23.8-13.4C381.9,460,358.3,460.5,337.3,467.4 M759.1,469.6
			c-13.3,2.8-24.9,10.7-33.6,20.9c-8.2,8.6-12.4,20-15.9,31.2c-3,11.7-4.4,24.2-1.3,36.1c2.7,10.1,5,20.7,11.5,29.2
			c7.4,12.4,20,21.3,33.7,25.5c14.3,3.8,29.9,1,42.5-6.5c15.1-10,26.1-25.8,30.6-43.4c6.4-22.9,2.3-48.3-10.8-68.1
			c-9.2-12.7-22.9-22.4-38.4-25.3C771.3,468.8,765.1,468.5,759.1,469.6 M370.6,510.9c-3.3,0.5-6.6,0.7-9.8,1.6
			c-22.2,6.6-42.5,20.6-54.6,40.5c-5.3,6.7-8.3,14.8-12,22.4c-9.8,25.6-11.3,54.2-4,80.6c2.5,10.1,7.5,19.3,12.2,28.6
			c5.1,8.4,11.7,15.8,18.6,22.7c7.5,6.6,16.1,11.9,25.2,16.1c5.9,2.2,12.1,3.3,18.3,4.7c12.7,1,25.8,0.9,38-3.6
			c13.3-5,25.5-13,35.1-23.6c6.1-5.7,11-12.5,15.2-19.7c4-7.2,7.9-14.5,10.1-22.5c9.5-28.2,8.8-59.7-2.3-87.4
			c-3.3-8.9-8.5-16.8-13.9-24.6c-5.8-6.9-11.4-14.2-18.9-19.3c-8.6-6.6-18.5-11-28.6-14.5C389.8,510.6,380.1,510,370.6,510.9z"/>
		<path class="st0" d="M796.1,90.3c7.5-2.6,14.5-6.3,22-8.9c-23,17.1-47.6,31.9-70.2,49.7c-10.8,7.7-20.4,17.2-28.1,28.1
			c-4.7,6.2-7.6,13.5-10.8,20.6c-3.7,8.2-5.3,17.1-7.1,25.8c-2.1-13.7-1-27.7,1.7-41.3c5.7-27.3,20.3-53.3,42.3-70.7
			c-1,6.9-4.2,13.3-4.7,20.3c8.2-3.3,15.9-7.6,24.2-10.5C775.4,98.4,786,95,796.1,90.3z"/>
		<path class="st0" d="M513.7,136.9c10.9-0.7,21.8,0,32.7-0.1c10.4,1.2,21,0.9,31.5,1c2.3,0.1,5.2-0.5,6.8,1.6
			c11.2,11,24.4,19.7,38.4,26.6c-4.5,0.3-8.7-1.8-13-2.8c-25.6-7.6-51.6-13.6-77.4-20.8C526.3,141,519.3,140.5,513.7,136.9z"/>
		<path class="st0" d="M375.5,388.8c20.8-5.3,42.7-6.1,63.9-2.6c22.1,4.7,43.1,14.5,60.9,28.5c13.7,11.3,26.6,24,36,39.3
			c3.8,4.6,6.5,9.9,9.4,15.1c13.6,5.3,26.6,12.1,40.2,17.5c11.8,5.8,24.1,10.5,36,16.1c-10.6,0.8-21.1-1.4-31.7-2.1
			c-23.3-1.4-46.4-5-69.6-6.7c-2.7-0.4-6.1,0.8-8.1-1.4c-4.3-6.4-7-13.8-11.7-20c-16.7-25.8-38.7-48.7-66.1-63
			c-12.6-7.3-26.2-13-40.4-16.4C388.1,391.6,381.5,391.2,375.5,388.8z"/>
		<path class="st0" d="M762.3,495.7c17.2-3.6,34.3,8.5,40.7,24.1c3.1,8.5,5.4,17.7,3.8,26.8c-1.7,14.6-9.2,29.3-22.3,36.7
			c-6.2,3.2-13.2,5.6-20.2,4.7c-8.1-1.4-16.2-4.9-21.9-11c-4.5-4.4-7.3-10.2-10-15.8c-2.9-6.9-2.8-14.4-2.8-21.7
			c0.3-14.4,6.9-28.7,18.6-37.3C752.3,498.8,757.4,497.2,762.3,495.7z"/>
		<path class="st0" d="M367,546.1c12.9-1.9,27-1.2,38.2,6.2c14.8,8,25.4,22.4,30.7,38.2c8.4,23.7,5.4,50.8-7.2,72.5
			c-7,11.1-16.5,20.8-28.4,26.6c-10,4.1-21,6.9-31.8,4.7c-6.8-1.5-13.5-3.6-19.7-6.9c-9.3-5-16.4-13.1-21.9-22
			c-4.4-6.2-7.8-13.1-9.4-20.5c-2.4-11.2-4.4-22.9-2.2-34.3c0.5-4.8,1.4-9.6,2.7-14.3c1.7-8.2,6.2-15.4,10.2-22.6
			C337.5,560.6,351,549.6,367,546.1z"/>
	</g>
	<g>
		<path d="M67.9,969.8V897h14.6v14.6H97v14.6h14.6v14.6H97v-14.6H82.4v43.7H67.9z M126.1,969.8v-43.7h-14.6v-14.6h14.6V897h14.6
			v72.8H126.1z"/>
		<path d="M184.4,969.8v-14.6h-14.6v-43.7h14.6v43.7h29.1v14.6H184.4z M213.5,926.1v-14.6h-29.1V897h29.1v14.6H228v14.6H213.5z
			 M213.5,955.2v-14.6H228v14.6H213.5z"/>
		<path d="M257.2,969.8V897h43.7v14.6h14.6v14.6h-14.6v14.6h-29.1v29.1H257.2z M271.7,926.1h28.5v-14.6h-28.5V926.1z"/>
		<path d="M446.5,955.2v-14.6h-29.1v-14.6h-14.6v-14.6h14.6v14.6h29.1v14.6H461v14.6H446.5z M402.8,969.8v-14.6h43.7v14.6H402.8z
			 M417.3,911.6V897H461v14.6H417.3z"/>
		<path d="M504.7,969.8v-14.6h-14.6v-43.7h14.6v43.7h29.1v14.6H504.7z M533.8,926.1v-14.6h-29.1V897h29.1v14.6h14.6v14.6H533.8z
			 M533.8,955.2v-14.6h14.6v14.6H533.8z"/>
		<path d="M592.1,969.8v-14.6h-14.6v-43.7h14.6V897h29.1v14.6h14.6v43.7h-14.6v14.6H592.1z M592.1,954.7h29.1v-42.5h-29.1V954.7z"/>
		<path d="M679.5,969.8v-14.6h-14.6v-43.7h14.6V897h29.1v14.6h14.6v43.7h-14.6v14.6H679.5z M679.5,954.7h29.1v-42.5h-29.1V954.7z"/>
		<path d="M766.8,969.8v-58.2h-14.6V897H796v14.6h-14.6v58.2H766.8z"/>
		<path d="M825.1,969.8V897h43.7v14.6h-29.1v14.6h29.1v14.6h-29.1v14.6h29.1v14.6H825.1z"/>
		<path d="M897.9,969.8V897h43.7v14.6h14.6v14.6h-14.6v29.1h14.6v14.6h-14.6v-14.6H927v-14.6h-14.6v29.1H897.9z M912.5,926.1H941
			v-14.6h-28.5V926.1z"/>
	</g>
</g>
</svg>
